<svg width="32" height="32" viewBox="0 0 32 32" fill="none" xmlns="http://www.w3.org/2000/svg">
<mask id="mask0_25402_2900" style="mask-type:alpha" maskUnits="userSpaceOnUse" x="-1" y="0" width="33" height="32">
<rect x="-0.000488281" width="32" height="32" fill="#D9D9D9"/>
</mask>
<g mask="url(#mask0_25402_2900)">
<path d="M25.3289 18.6667C25.013 18.6667 24.7494 18.5602 24.5383 18.3473C24.3272 18.1343 24.2217 17.8704 24.2217 17.5556V14.4445H21.1105C20.7957 14.4445 20.5318 14.3376 20.3189 14.1239C20.1059 13.9102 19.9994 13.6454 19.9994 13.3295C19.9994 13.0136 20.1059 12.7501 20.3189 12.5389C20.5318 12.3278 20.7957 12.2223 21.1105 12.2223H24.2217V9.11115C24.2217 8.79635 24.3285 8.53246 24.5422 8.31948C24.7559 8.10653 25.0208 8.00005 25.3367 8.00005C25.6526 8.00005 25.9161 8.10653 26.1272 8.31948C26.3383 8.53246 26.4439 8.79635 26.4439 9.11115V12.2223H29.555C29.8698 12.2223 30.1337 12.3291 30.3467 12.5428C30.5596 12.7566 30.6661 13.0214 30.6661 13.3373C30.6661 13.6532 30.5596 13.9167 30.3467 14.1278C30.1337 14.3389 29.8698 14.4445 29.555 14.4445H26.4439V17.5556C26.4439 17.8704 26.337 18.1343 26.1233 18.3473C25.9096 18.5602 25.6448 18.6667 25.3289 18.6667ZM11.9994 15.9778C10.5328 15.9778 9.31424 15.4926 8.34386 14.5223C7.37351 13.5519 6.88833 12.3334 6.88833 10.8667C6.88833 9.40005 7.37351 8.18154 8.34386 7.21118C9.31424 6.2408 10.5328 5.75562 11.9994 5.75562C13.4661 5.75562 14.6846 6.2408 15.655 7.21118C16.6254 8.18154 17.1105 9.40005 17.1105 10.8667C17.1105 12.3334 16.6254 13.5519 15.655 14.5223C14.6846 15.4926 13.4661 15.9778 11.9994 15.9778ZM2.44386 26.6667C2.12906 26.6667 1.86517 26.5602 1.6522 26.3473C1.43924 26.1343 1.33276 25.8704 1.33276 25.5556V23.3334C1.33276 22.563 1.53091 21.8612 1.9272 21.2279C2.32351 20.5945 2.86611 20.1186 3.555 19.8C5.12537 19.0815 6.57973 18.5649 7.91806 18.25C9.25642 17.9352 10.6157 17.7779 11.9958 17.7779C13.376 17.7779 14.7365 17.9352 16.0772 18.25C17.4179 18.5649 18.8661 19.0815 20.4217 19.8C21.1106 20.1334 21.6568 20.613 22.0605 21.2389C22.4642 21.8649 22.6661 22.563 22.6661 23.3334V25.5556C22.6661 25.8704 22.5596 26.1343 22.3467 26.3473C22.1337 26.5602 21.8698 26.6667 21.555 26.6667H2.44386ZM3.55496 24.4445H20.4439V23.3334C20.4439 23.0149 20.3643 22.7149 20.205 22.4334C20.0457 22.1519 19.8068 21.9408 19.4883 21.8C18.0513 21.0963 16.7624 20.6204 15.6217 20.3723C14.4809 20.1241 13.2735 20 11.9994 20C10.7254 20 9.51795 20.1278 8.3772 20.3834C7.23646 20.6389 5.94018 21.1112 4.48833 21.8C4.19942 21.9408 3.97163 22.1519 3.80496 22.4334C3.6383 22.7149 3.55496 23.0149 3.55496 23.3334V24.4445ZM11.9994 13.7556C12.8217 13.7556 13.5087 13.4797 14.0605 12.9278C14.6124 12.376 14.8883 11.6889 14.8883 10.8667C14.8883 10.0445 14.6124 9.35746 14.0605 8.80562C13.5087 8.25375 12.8217 7.97782 11.9994 7.97782C11.1772 7.97782 10.4902 8.25375 9.93833 8.80562C9.38646 9.35746 9.11053 10.0445 9.11053 10.8667C9.11053 11.6889 9.38646 12.376 9.93833 12.9278C10.4902 13.4797 11.1772 13.7556 11.9994 13.7556Z" fill="white"/>
</g>
</svg>
