<svg width="33" height="33" viewBox="0 0 33 33" fill="none" xmlns="http://www.w3.org/2000/svg">
<mask id="mask0_19505_9836" style="mask-type:alpha" maskUnits="userSpaceOnUse" x="4" y="4" width="25" height="25">
<rect x="4.68213" y="4.39673" width="24" height="24" fill="#D9D9D9"/>
</mask>
<g mask="url(#mask0_19505_9836)">
<path d="M16.6821 18.2608L10.1488 24.7856C9.90436 25.0297 9.59324 25.1518 9.21547 25.1518C8.83769 25.1518 8.52658 25.0297 8.28213 24.7856C8.03769 24.5415 7.91547 24.2308 7.91547 23.8535C7.91547 23.4762 8.03769 23.1655 8.28213 22.9214L14.8155 16.3966L8.28213 9.87188C8.03769 9.62775 7.91547 9.31705 7.91547 8.93977C7.91547 8.56249 8.03769 8.25179 8.28213 8.00766C8.52658 7.76354 8.83769 7.64148 9.21547 7.64148C9.59324 7.64148 9.90436 7.76354 10.1488 8.00766L16.6821 14.5324L23.2155 8.00766C23.4599 7.76354 23.771 7.64148 24.1488 7.64148C24.5266 7.64148 24.8377 7.76354 25.0821 8.00766C25.3266 8.25179 25.4488 8.56249 25.4488 8.93977C25.4488 9.31705 25.3266 9.62775 25.0821 9.87188L18.5488 16.3966L25.0821 22.9214C25.3266 23.1655 25.4488 23.4762 25.4488 23.8535C25.4488 24.2308 25.3266 24.5415 25.0821 24.7856C24.8377 25.0297 24.5266 25.1518 24.1488 25.1518C23.771 25.1518 23.4599 25.0297 23.2155 24.7856L16.6821 18.2608Z" fill="#4589FF"/>
</g>
</svg>
