<svg width="25" height="25" viewBox="0 0 25 25" fill="none" xmlns="http://www.w3.org/2000/svg">
<mask id="mask0_25705_2757" style="mask-type:alpha" maskUnits="userSpaceOnUse" x="0" y="0" width="25" height="25">
<rect x="0.5" y="0.48291" width="24" height="24" fill="#D9D9D9"/>
</mask>
<g mask="url(#mask0_25705_2757)">
<path d="M10.05 15.6329L18.525 7.15791C18.725 6.95791 18.9625 6.85791 19.2375 6.85791C19.5125 6.85791 19.75 6.95791 19.95 7.15791C20.15 7.35791 20.25 7.59541 20.25 7.87041C20.25 8.14541 20.15 8.38291 19.95 8.58291L10.75 17.7829C10.55 17.9829 10.3167 18.0829 10.05 18.0829C9.78336 18.0829 9.55002 17.9829 9.35002 17.7829L5.05002 13.4829C4.85002 13.2829 4.75419 13.0454 4.76252 12.7704C4.77086 12.4954 4.87502 12.2579 5.07502 12.0579C5.27502 11.8579 5.51252 11.7579 5.78752 11.7579C6.06252 11.7579 6.30002 11.8579 6.50002 12.0579L10.05 15.6329Z" fill="white"/>
</g>
</svg>
