<svg width="73" height="72" viewBox="0 0 73 72" fill="none" xmlns="http://www.w3.org/2000/svg">
<g filter="url(#filter0_d_19053_6777)">
<rect x="4.21875" width="64" height="64" rx="10" fill="#4589FF" shape-rendering="crispEdges"/>
<rect x="4.71875" y="0.5" width="63" height="63" rx="9.5" stroke="#4589FF" shape-rendering="crispEdges"/>
<mask id="mask0_19053_6777" style="mask-type:alpha" maskUnits="userSpaceOnUse" x="20" y="16" width="33" height="32">
<rect x="20.2188" y="16" width="32" height="32" fill="#D9D9D9"/>
</mask>
<g mask="url(#mask0_19053_6777)">
<path d="M36.2184 42.6666C35.4851 42.6666 34.8573 42.4055 34.3351 41.8833C33.8129 41.361 33.5518 40.7333 33.5518 39.9999C33.5518 39.2666 33.8129 38.6388 34.3351 38.1166C34.8573 37.5944 35.4851 37.3333 36.2184 37.3333C36.9518 37.3333 37.5795 37.5944 38.1018 38.1166C38.624 38.6388 38.8851 39.2666 38.8851 39.9999C38.8851 40.7333 38.624 41.361 38.1018 41.8833C37.5795 42.4055 36.9518 42.6666 36.2184 42.6666ZM36.2184 34.6666C35.4851 34.6666 34.8573 34.4055 34.3351 33.8833C33.8129 33.361 33.5518 32.7333 33.5518 31.9999C33.5518 31.2666 33.8129 30.6388 34.3351 30.1166C34.8573 29.5944 35.4851 29.3333 36.2184 29.3333C36.9518 29.3333 37.5795 29.5944 38.1018 30.1166C38.624 30.6388 38.8851 31.2666 38.8851 31.9999C38.8851 32.7333 38.624 33.361 38.1018 33.8833C37.5795 34.4055 36.9518 34.6666 36.2184 34.6666ZM36.2184 26.6666C35.4851 26.6666 34.8573 26.4055 34.3351 25.8833C33.8129 25.361 33.5518 24.7333 33.5518 23.9999C33.5518 23.2666 33.8129 22.6388 34.3351 22.1166C34.8573 21.5944 35.4851 21.3333 36.2184 21.3333C36.9518 21.3333 37.5795 21.5944 38.1018 22.1166C38.624 22.6388 38.8851 23.2666 38.8851 23.9999C38.8851 24.7333 38.624 25.361 38.1018 25.8833C37.5795 26.4055 36.9518 26.6666 36.2184 26.6666Z" fill="white"/>
</g>
</g>
<defs>
<filter id="filter0_d_19053_6777" x="0.21875" y="0" width="72" height="72" filterUnits="userSpaceOnUse" color-interpolation-filters="sRGB">
<feFlood flood-opacity="0" result="BackgroundImageFix"/>
<feColorMatrix in="SourceAlpha" type="matrix" values="0 0 0 0 0 0 0 0 0 0 0 0 0 0 0 0 0 0 127 0" result="hardAlpha"/>
<feOffset dy="4"/>
<feGaussianBlur stdDeviation="2"/>
<feComposite in2="hardAlpha" operator="out"/>
<feColorMatrix type="matrix" values="0 0 0 0 0 0 0 0 0 0 0 0 0 0 0 0 0 0 0.25 0"/>
<feBlend mode="normal" in2="BackgroundImageFix" result="effect1_dropShadow_19053_6777"/>
<feBlend mode="normal" in="SourceGraphic" in2="effect1_dropShadow_19053_6777" result="shape"/>
</filter>
</defs>
</svg>
