<svg width="158" height="20" viewBox="0 0 158 20" fill="none" xmlns="http://www.w3.org/2000/svg">
<path d="M1.56201 16V4.57812H2.89014V16H1.56201ZM13.8042 8.45312H11.6714V16H10.3745V8.45312H8.85889V7.82812L10.3745 7.39844V6.82812C10.3745 6.10938 10.4813 5.52604 10.6948 5.07812C10.9084 4.625 11.2183 4.29167 11.6245 4.07812C12.0308 3.86458 12.5256 3.75781 13.1089 3.75781C13.437 3.75781 13.7365 3.78646 14.0073 3.84375C14.2834 3.90104 14.5256 3.96615 14.7339 4.03906L14.3979 5.0625C14.2209 5.00521 14.0203 4.95312 13.7964 4.90625C13.5776 4.85417 13.3537 4.82812 13.1245 4.82812C12.6297 4.82812 12.2625 4.98958 12.0229 5.3125C11.7886 5.63021 11.6714 6.13021 11.6714 6.8125V7.4375H13.8042V8.45312ZM22.7651 11.7031C22.7651 12.4062 22.674 13.0339 22.4917 13.5859C22.3094 14.138 22.0464 14.6042 21.7026 14.9844C21.3589 15.3646 20.9422 15.6562 20.4526 15.8594C19.9683 16.0573 19.4188 16.1562 18.8042 16.1562C18.2313 16.1562 17.7052 16.0573 17.2261 15.8594C16.7521 15.6562 16.3407 15.3646 15.9917 14.9844C15.6479 14.6042 15.3797 14.138 15.187 13.5859C14.9995 13.0339 14.9058 12.4062 14.9058 11.7031C14.9058 10.7656 15.0646 9.96875 15.3823 9.3125C15.7 8.65104 16.1532 8.14844 16.7417 7.80469C17.3354 7.45573 18.0412 7.28125 18.8589 7.28125C19.6401 7.28125 20.3224 7.45573 20.9058 7.80469C21.4943 8.15365 21.95 8.65885 22.2729 9.32031C22.6011 9.97656 22.7651 10.7708 22.7651 11.7031ZM16.2495 11.7031C16.2495 12.3906 16.3407 12.987 16.5229 13.4922C16.7052 13.9974 16.9865 14.388 17.3667 14.6641C17.7469 14.9401 18.2365 15.0781 18.8354 15.0781C19.4292 15.0781 19.9162 14.9401 20.2964 14.6641C20.6818 14.388 20.9657 13.9974 21.1479 13.4922C21.3302 12.987 21.4214 12.3906 21.4214 11.7031C21.4214 11.0208 21.3302 10.4323 21.1479 9.9375C20.9657 9.4375 20.6844 9.05208 20.3042 8.78125C19.924 8.51042 19.4318 8.375 18.8276 8.375C17.937 8.375 17.2834 8.66927 16.8667 9.25781C16.4552 9.84635 16.2495 10.6615 16.2495 11.7031ZM28.8979 7.28125C29.0698 7.28125 29.2495 7.29167 29.437 7.3125C29.6245 7.32812 29.7912 7.35156 29.937 7.38281L29.7729 8.58594C29.6323 8.54948 29.4761 8.52083 29.3042 8.5C29.1323 8.47917 28.9709 8.46875 28.8198 8.46875C28.4761 8.46875 28.1506 8.53906 27.8433 8.67969C27.5412 8.8151 27.2756 9.01302 27.0464 9.27344C26.8172 9.52865 26.6375 9.83854 26.5073 10.2031C26.3771 10.5625 26.312 10.9635 26.312 11.4062V16H25.0073V7.4375H26.0854L26.2261 9.01562H26.2808C26.4578 8.69792 26.6714 8.40885 26.9214 8.14844C27.1714 7.88281 27.4604 7.67188 27.7886 7.51562C28.1219 7.35938 28.4917 7.28125 28.8979 7.28125ZM33.9448 19.8438C32.8198 19.8438 31.9526 19.6328 31.3433 19.2109C30.7339 18.7943 30.4292 18.2083 30.4292 17.4531C30.4292 16.9167 30.5985 16.4583 30.937 16.0781C31.2808 15.6979 31.7547 15.4453 32.3589 15.3203C32.1349 15.2161 31.9422 15.0599 31.7808 14.8516C31.6245 14.6432 31.5464 14.4036 31.5464 14.1328C31.5464 13.8203 31.6323 13.5469 31.8042 13.3125C31.9813 13.0729 32.2495 12.8438 32.6089 12.625C32.161 12.4427 31.7964 12.1354 31.5151 11.7031C31.2391 11.2656 31.1011 10.7578 31.1011 10.1797C31.1011 9.5651 31.2287 9.04167 31.4839 8.60938C31.7391 8.17188 32.1089 7.83854 32.5933 7.60938C33.0776 7.38021 33.6636 7.26562 34.3511 7.26562C34.5021 7.26562 34.6532 7.27344 34.8042 7.28906C34.9604 7.29948 35.1089 7.31771 35.2495 7.34375C35.3901 7.36458 35.5125 7.39062 35.6167 7.42188H38.5542V8.25781L36.9761 8.45312C37.1323 8.65625 37.2625 8.90104 37.3667 9.1875C37.4709 9.47396 37.5229 9.79167 37.5229 10.1406C37.5229 10.9948 37.2339 11.6745 36.6558 12.1797C36.0776 12.6797 35.2834 12.9297 34.2729 12.9297C34.0334 12.9297 33.7886 12.9089 33.5386 12.8672C33.2834 13.0078 33.0881 13.1641 32.9526 13.3359C32.8224 13.5078 32.7573 13.7057 32.7573 13.9297C32.7573 14.0964 32.8068 14.2292 32.9058 14.3281C33.0099 14.4271 33.1584 14.5 33.3511 14.5469C33.5438 14.5885 33.7756 14.6094 34.0464 14.6094H35.5542C36.4865 14.6094 37.2 14.8047 37.6948 15.1953C38.1948 15.5859 38.4448 16.1562 38.4448 16.9062C38.4448 17.8542 38.0594 18.5807 37.2886 19.0859C36.5177 19.5911 35.4032 19.8438 33.9448 19.8438ZM33.9839 18.8281C34.6922 18.8281 35.2782 18.7552 35.7417 18.6094C36.2104 18.4688 36.5594 18.263 36.7886 17.9922C37.0229 17.7266 37.1401 17.4089 37.1401 17.0391C37.1401 16.6953 37.062 16.4349 36.9058 16.2578C36.7495 16.0859 36.5203 15.9714 36.2183 15.9141C35.9162 15.8516 35.5464 15.8203 35.1089 15.8203H33.6245C33.2391 15.8203 32.9032 15.8802 32.6167 16C32.3302 16.1198 32.1089 16.2969 31.9526 16.5312C31.8016 16.7656 31.7261 17.0573 31.7261 17.4062C31.7261 17.8698 31.9214 18.2214 32.312 18.4609C32.7026 18.7057 33.2599 18.8281 33.9839 18.8281ZM34.3198 11.9844C34.9396 11.9844 35.4058 11.8281 35.7183 11.5156C36.0308 11.2031 36.187 10.7474 36.187 10.1484C36.187 9.50781 36.0282 9.02865 35.7104 8.71094C35.3927 8.38802 34.924 8.22656 34.3042 8.22656C33.7104 8.22656 33.2521 8.39323 32.9292 8.72656C32.6115 9.05469 32.4526 9.53646 32.4526 10.1719C32.4526 10.7552 32.6141 11.2031 32.937 11.5156C33.2599 11.8281 33.7209 11.9844 34.3198 11.9844ZM47.6245 11.7031C47.6245 12.4062 47.5334 13.0339 47.3511 13.5859C47.1688 14.138 46.9058 14.6042 46.562 14.9844C46.2183 15.3646 45.8016 15.6562 45.312 15.8594C44.8276 16.0573 44.2782 16.1562 43.6636 16.1562C43.0907 16.1562 42.5646 16.0573 42.0854 15.8594C41.6115 15.6562 41.2 15.3646 40.8511 14.9844C40.5073 14.6042 40.2391 14.138 40.0464 13.5859C39.8589 13.0339 39.7651 12.4062 39.7651 11.7031C39.7651 10.7656 39.924 9.96875 40.2417 9.3125C40.5594 8.65104 41.0125 8.14844 41.6011 7.80469C42.1948 7.45573 42.9006 7.28125 43.7183 7.28125C44.4995 7.28125 45.1818 7.45573 45.7651 7.80469C46.3537 8.15365 46.8094 8.65885 47.1323 9.32031C47.4604 9.97656 47.6245 10.7708 47.6245 11.7031ZM41.1089 11.7031C41.1089 12.3906 41.2 12.987 41.3823 13.4922C41.5646 13.9974 41.8459 14.388 42.2261 14.6641C42.6063 14.9401 43.0959 15.0781 43.6948 15.0781C44.2886 15.0781 44.7756 14.9401 45.1558 14.6641C45.5412 14.388 45.825 13.9974 46.0073 13.4922C46.1896 12.987 46.2808 12.3906 46.2808 11.7031C46.2808 11.0208 46.1896 10.4323 46.0073 9.9375C45.825 9.4375 45.5438 9.05208 45.1636 8.78125C44.7834 8.51042 44.2912 8.375 43.687 8.375C42.7964 8.375 42.1427 8.66927 41.7261 9.25781C41.3146 9.84635 41.1089 10.6615 41.1089 11.7031ZM52.6323 15.0938C52.8459 15.0938 53.0646 15.0755 53.2886 15.0391C53.5125 15.0026 53.6948 14.9583 53.8354 14.9062V15.9141C53.6844 15.9818 53.4735 16.0391 53.2026 16.0859C52.937 16.1328 52.6766 16.1562 52.4214 16.1562C51.9683 16.1562 51.5568 16.0781 51.187 15.9219C50.8172 15.7604 50.5203 15.4896 50.2964 15.1094C50.0776 14.7292 49.9683 14.2031 49.9683 13.5312V8.45312H48.7495V7.82031L49.9761 7.3125L50.4917 5.45312H51.2729V7.4375H53.7808V8.45312H51.2729V13.4922C51.2729 14.0286 51.3953 14.4297 51.6401 14.6953C51.8901 14.9609 52.2209 15.0938 52.6323 15.0938ZM69.0229 7.28125C69.9657 7.28125 70.6766 7.52865 71.1558 8.02344C71.6349 8.51302 71.8745 9.30208 71.8745 10.3906V16H70.5933V10.4531C70.5933 9.76042 70.4422 9.24219 70.1401 8.89844C69.8433 8.54948 69.4006 8.375 68.812 8.375C67.9839 8.375 67.3823 8.61458 67.0073 9.09375C66.6323 9.57292 66.4448 10.2786 66.4448 11.2109V16H65.1558V10.4531C65.1558 9.98958 65.0881 9.60417 64.9526 9.29688C64.8224 8.98958 64.6245 8.76042 64.3589 8.60938C64.0985 8.45312 63.7677 8.375 63.3667 8.375C62.799 8.375 62.3433 8.49219 61.9995 8.72656C61.6558 8.96094 61.4058 9.3099 61.2495 9.77344C61.0985 10.2318 61.0229 10.7969 61.0229 11.4688V16H59.7261V7.4375H60.7729L60.9683 8.64844H61.0386C61.2104 8.35156 61.4266 8.10156 61.687 7.89844C61.9474 7.69531 62.2391 7.54167 62.562 7.4375C62.8849 7.33333 63.2287 7.28125 63.5933 7.28125C64.2443 7.28125 64.7886 7.40365 65.2261 7.64844C65.6688 7.88802 65.9891 8.25521 66.187 8.75H66.2573C66.5386 8.25521 66.924 7.88802 67.4136 7.64844C67.9032 7.40365 68.4396 7.28125 69.0229 7.28125ZM73.187 7.4375H74.5776L76.4683 12.4062C76.5776 12.6979 76.6792 12.9792 76.7729 13.25C76.8667 13.5156 76.95 13.7708 77.0229 14.0156C77.0959 14.2604 77.1532 14.4974 77.1948 14.7266H77.2495C77.3224 14.4661 77.4266 14.125 77.562 13.7031C77.6974 13.276 77.8433 12.8411 77.9995 12.3984L79.7886 7.4375H81.187L77.4604 17.2578C77.2625 17.7839 77.0308 18.2422 76.7651 18.6328C76.5047 19.0234 76.187 19.3229 75.812 19.5312C75.437 19.7448 74.9839 19.8516 74.4526 19.8516C74.2078 19.8516 73.9917 19.8359 73.8042 19.8047C73.6167 19.7786 73.4552 19.7474 73.3198 19.7109V18.6719C73.4344 18.6979 73.5724 18.7214 73.7339 18.7422C73.9006 18.763 74.0724 18.7734 74.2495 18.7734C74.5724 18.7734 74.8511 18.7109 75.0854 18.5859C75.325 18.4661 75.5308 18.2891 75.7026 18.0547C75.8745 17.8203 76.0229 17.5417 76.1479 17.2188L76.6167 16.0156L73.187 7.4375ZM90.7339 7.28125C91.8016 7.28125 92.6532 7.64844 93.2886 8.38281C93.924 9.11719 94.2417 10.2214 94.2417 11.6953C94.2417 12.6693 94.0959 13.487 93.8042 14.1484C93.5125 14.8099 93.1011 15.3099 92.5698 15.6484C92.0438 15.987 91.4214 16.1562 90.7026 16.1562C90.2495 16.1562 89.8511 16.0964 89.5073 15.9766C89.1636 15.8568 88.8693 15.6953 88.6245 15.4922C88.3797 15.2891 88.1766 15.0677 88.0151 14.8281H87.9214C87.937 15.0312 87.9552 15.276 87.9761 15.5625C88.0021 15.849 88.0151 16.099 88.0151 16.3125V19.8281H86.7104V7.4375H87.7808L87.9526 8.70312H88.0151C88.1818 8.44271 88.3849 8.20573 88.6245 7.99219C88.8641 7.77344 89.1558 7.60156 89.4995 7.47656C89.8485 7.34635 90.2599 7.28125 90.7339 7.28125ZM90.5073 8.375C89.9136 8.375 89.4344 8.48958 89.0698 8.71875C88.7104 8.94792 88.4474 9.29167 88.2808 9.75C88.1141 10.2031 88.0256 10.7734 88.0151 11.4609V11.7109C88.0151 12.4349 88.0933 13.0469 88.2495 13.5469C88.411 14.0469 88.674 14.4271 89.0386 14.6875C89.4084 14.9479 89.9032 15.0781 90.5229 15.0781C91.0542 15.0781 91.4969 14.9349 91.8511 14.6484C92.2052 14.362 92.4683 13.9635 92.6401 13.4531C92.8172 12.9375 92.9058 12.3464 92.9058 11.6797C92.9058 10.6693 92.7078 9.86719 92.312 9.27344C91.9214 8.67448 91.3198 8.375 90.5073 8.375ZM99.7104 7.29688C100.731 7.29688 101.489 7.52604 101.984 7.98438C102.479 8.44271 102.726 9.17448 102.726 10.1797V16H101.781L101.531 14.7344H101.468C101.229 15.0469 100.979 15.3099 100.718 15.5234C100.458 15.7318 100.156 15.8906 99.812 16C99.4735 16.1042 99.0568 16.1562 98.562 16.1562C98.0412 16.1562 97.5776 16.0651 97.1714 15.8828C96.7703 15.7005 96.4526 15.4245 96.2183 15.0547C95.9891 14.6849 95.8745 14.2161 95.8745 13.6484C95.8745 12.7943 96.2131 12.138 96.8901 11.6797C97.5672 11.2214 98.5985 10.9714 99.9839 10.9297L101.46 10.8672V10.3438C101.46 9.60417 101.302 9.08594 100.984 8.78906C100.666 8.49219 100.218 8.34375 99.6401 8.34375C99.1922 8.34375 98.7651 8.40885 98.3589 8.53906C97.9526 8.66927 97.5672 8.82292 97.2026 9L96.8042 8.01562C97.1896 7.81771 97.6323 7.64844 98.1323 7.50781C98.6323 7.36719 99.1584 7.29688 99.7104 7.29688ZM101.445 11.7812L100.14 11.8359C99.0724 11.8776 98.3198 12.0521 97.8823 12.3594C97.4448 12.6667 97.2261 13.1016 97.2261 13.6641C97.2261 14.1536 97.3745 14.5156 97.6714 14.75C97.9683 14.9844 98.3615 15.1016 98.8511 15.1016C99.6115 15.1016 100.234 14.8906 100.718 14.4688C101.203 14.0469 101.445 13.4141 101.445 12.5703V11.7812ZM110.937 13.6562C110.937 14.2031 110.799 14.6641 110.523 15.0391C110.252 15.4089 109.861 15.6875 109.351 15.875C108.846 16.0625 108.242 16.1562 107.539 16.1562C106.94 16.1562 106.421 16.1094 105.984 16.0156C105.546 15.9219 105.164 15.7891 104.835 15.6172V14.4219C105.184 14.5938 105.601 14.75 106.085 14.8906C106.57 15.0312 107.065 15.1016 107.57 15.1016C108.309 15.1016 108.846 14.9818 109.179 14.7422C109.513 14.5026 109.679 14.1771 109.679 13.7656C109.679 13.5312 109.611 13.3255 109.476 13.1484C109.346 12.9661 109.125 12.7917 108.812 12.625C108.5 12.4531 108.067 12.2656 107.515 12.0625C106.968 11.8542 106.494 11.6484 106.093 11.4453C105.697 11.237 105.39 10.9844 105.171 10.6875C104.958 10.3906 104.851 10.0052 104.851 9.53125C104.851 8.80729 105.143 8.2526 105.726 7.86719C106.315 7.47656 107.085 7.28125 108.039 7.28125C108.554 7.28125 109.036 7.33333 109.484 7.4375C109.937 7.53646 110.359 7.67188 110.75 7.84375L110.312 8.88281C109.958 8.73177 109.58 8.60417 109.179 8.5C108.778 8.39583 108.369 8.34375 107.953 8.34375C107.354 8.34375 106.893 8.44271 106.57 8.64062C106.252 8.83854 106.093 9.10938 106.093 9.45312C106.093 9.71875 106.166 9.9375 106.312 10.1094C106.463 10.2812 106.703 10.4427 107.031 10.5938C107.359 10.7448 107.791 10.9219 108.328 11.125C108.864 11.3229 109.328 11.5286 109.718 11.7422C110.109 11.9505 110.408 12.2057 110.617 12.5078C110.83 12.8047 110.937 13.1875 110.937 13.6562ZM118.562 13.6562C118.562 14.2031 118.424 14.6641 118.148 15.0391C117.877 15.4089 117.486 15.6875 116.976 15.875C116.471 16.0625 115.867 16.1562 115.164 16.1562C114.565 16.1562 114.046 16.1094 113.609 16.0156C113.171 15.9219 112.789 15.7891 112.46 15.6172V14.4219C112.809 14.5938 113.226 14.75 113.71 14.8906C114.195 15.0312 114.69 15.1016 115.195 15.1016C115.934 15.1016 116.471 14.9818 116.804 14.7422C117.138 14.5026 117.304 14.1771 117.304 13.7656C117.304 13.5312 117.236 13.3255 117.101 13.1484C116.971 12.9661 116.75 12.7917 116.437 12.625C116.125 12.4531 115.692 12.2656 115.14 12.0625C114.593 11.8542 114.119 11.6484 113.718 11.4453C113.322 11.237 113.015 10.9844 112.796 10.6875C112.583 10.3906 112.476 10.0052 112.476 9.53125C112.476 8.80729 112.768 8.2526 113.351 7.86719C113.94 7.47656 114.71 7.28125 115.664 7.28125C116.179 7.28125 116.661 7.33333 117.109 7.4375C117.562 7.53646 117.984 7.67188 118.375 7.84375L117.937 8.88281C117.583 8.73177 117.205 8.60417 116.804 8.5C116.403 8.39583 115.994 8.34375 115.578 8.34375C114.979 8.34375 114.518 8.44271 114.195 8.64062C113.877 8.83854 113.718 9.10938 113.718 9.45312C113.718 9.71875 113.791 9.9375 113.937 10.1094C114.088 10.2812 114.328 10.4427 114.656 10.5938C114.984 10.7448 115.416 10.9219 115.953 11.125C116.489 11.3229 116.953 11.5286 117.343 11.7422C117.734 11.9505 118.033 12.2057 118.242 12.5078C118.455 12.8047 118.562 13.1875 118.562 13.6562ZM127.617 15.9844L126.093 11C126.026 10.7865 125.96 10.5781 125.898 10.375C125.841 10.1667 125.786 9.96875 125.734 9.78125C125.687 9.58854 125.643 9.41146 125.601 9.25C125.565 9.08333 125.533 8.9401 125.507 8.82031H125.453C125.432 8.9401 125.403 9.08333 125.367 9.25C125.33 9.41146 125.286 9.58854 125.234 9.78125C125.187 9.97396 125.135 10.1771 125.078 10.3906C125.02 10.599 124.955 10.8099 124.882 11.0234L123.289 15.9844H121.828L119.468 7.42188H120.812L122.046 12.1484C122.13 12.4609 122.208 12.7708 122.281 13.0781C122.359 13.3802 122.424 13.6667 122.476 13.9375C122.533 14.2031 122.575 14.4349 122.601 14.6328H122.664C122.695 14.5026 122.729 14.3464 122.765 14.1641C122.807 13.9818 122.851 13.7891 122.898 13.5859C122.95 13.3776 123.005 13.1719 123.062 12.9688C123.119 12.7604 123.177 12.5651 123.234 12.3828L124.812 7.42188H126.21L127.734 12.375C127.812 12.625 127.888 12.8854 127.96 13.1562C128.039 13.4271 128.109 13.6901 128.171 13.9453C128.234 14.1953 128.278 14.4193 128.304 14.6172H128.367C128.388 14.4401 128.427 14.2214 128.484 13.9609C128.541 13.7005 128.606 13.4141 128.679 13.1016C128.757 12.7891 128.838 12.4714 128.921 12.1484L130.171 7.42188H131.492L129.125 15.9844H127.617ZM140.437 11.7031C140.437 12.4062 140.346 13.0339 140.164 13.5859C139.981 14.138 139.718 14.6042 139.375 14.9844C139.031 15.3646 138.614 15.6562 138.125 15.8594C137.64 16.0573 137.091 16.1562 136.476 16.1562C135.903 16.1562 135.377 16.0573 134.898 15.8594C134.424 15.6562 134.013 15.3646 133.664 14.9844C133.32 14.6042 133.052 14.138 132.859 13.5859C132.671 13.0339 132.578 12.4062 132.578 11.7031C132.578 10.7656 132.736 9.96875 133.054 9.3125C133.372 8.65104 133.825 8.14844 134.414 7.80469C135.007 7.45573 135.713 7.28125 136.531 7.28125C137.312 7.28125 137.994 7.45573 138.578 7.80469C139.166 8.15365 139.622 8.65885 139.945 9.32031C140.273 9.97656 140.437 10.7708 140.437 11.7031ZM133.921 11.7031C133.921 12.3906 134.013 12.987 134.195 13.4922C134.377 13.9974 134.658 14.388 135.039 14.6641C135.419 14.9401 135.908 15.0781 136.507 15.0781C137.101 15.0781 137.588 14.9401 137.968 14.6641C138.354 14.388 138.638 13.9974 138.82 13.4922C139.002 12.987 139.093 12.3906 139.093 11.7031C139.093 11.0208 139.002 10.4323 138.82 9.9375C138.638 9.4375 138.356 9.05208 137.976 8.78125C137.596 8.51042 137.104 8.375 136.5 8.375C135.609 8.375 134.955 8.66927 134.539 9.25781C134.127 9.84635 133.921 10.6615 133.921 11.7031ZM146.57 7.28125C146.742 7.28125 146.921 7.29167 147.109 7.3125C147.296 7.32812 147.463 7.35156 147.609 7.38281L147.445 8.58594C147.304 8.54948 147.148 8.52083 146.976 8.5C146.804 8.47917 146.643 8.46875 146.492 8.46875C146.148 8.46875 145.822 8.53906 145.515 8.67969C145.213 8.8151 144.947 9.01302 144.718 9.27344C144.489 9.52865 144.309 9.83854 144.179 10.2031C144.049 10.5625 143.984 10.9635 143.984 11.4062V16H142.679V7.4375H143.757L143.898 9.01562H143.953C144.13 8.69792 144.343 8.40885 144.593 8.14844C144.843 7.88281 145.132 7.67188 145.46 7.51562C145.794 7.35938 146.164 7.28125 146.57 7.28125ZM152.273 16.1562C151.19 16.1562 150.33 15.7865 149.695 15.0469C149.065 14.3073 148.75 13.2083 148.75 11.75C148.75 10.276 149.072 9.16406 149.718 8.41406C150.364 7.65885 151.223 7.28125 152.296 7.28125C152.75 7.28125 153.145 7.34115 153.484 7.46094C153.822 7.58073 154.114 7.74219 154.359 7.94531C154.604 8.14323 154.809 8.36979 154.976 8.625H155.07C155.049 8.46354 155.028 8.24219 155.007 7.96094C154.986 7.67969 154.976 7.45052 154.976 7.27344V3.84375H156.273V16H155.226L155.031 14.7812H154.976C154.815 15.0365 154.609 15.2682 154.359 15.4766C154.114 15.6849 153.82 15.8516 153.476 15.9766C153.138 16.0964 152.736 16.1562 152.273 16.1562ZM152.476 15.0781C153.393 15.0781 154.041 14.8177 154.421 14.2969C154.802 13.776 154.992 13.0026 154.992 11.9766V11.7422C154.992 10.6536 154.809 9.81771 154.445 9.23438C154.085 8.65104 153.429 8.35938 152.476 8.35938C151.679 8.35938 151.083 8.66667 150.687 9.28125C150.291 9.89062 150.093 10.724 150.093 11.7812C150.093 12.8333 150.289 13.6458 150.679 14.2188C151.075 14.7917 151.674 15.0781 152.476 15.0781Z" fill="#005DFF"/>
</svg>
