<svg width="164" height="20" viewBox="0 0 164 20" fill="none" xmlns="http://www.w3.org/2000/svg">
<path d="M1.49951 16V4.57812H3.37451V16H1.49951ZM14.6792 8.75H12.5776V16H10.7417V8.75H9.32764V7.86719L10.7417 7.32812V6.72656C10.7417 5.99219 10.8563 5.40885 11.0854 4.97656C11.3198 4.54427 11.6532 4.23438 12.0854 4.04688C12.5229 3.85417 13.0438 3.75781 13.6479 3.75781C14.0438 3.75781 14.4058 3.79167 14.7339 3.85938C15.062 3.92188 15.3381 3.99479 15.562 4.07812L15.0854 5.46875C14.9084 5.41146 14.7104 5.35938 14.4917 5.3125C14.2729 5.26042 14.0386 5.23438 13.7886 5.23438C13.3719 5.23438 13.0646 5.36458 12.8667 5.625C12.674 5.88542 12.5776 6.26562 12.5776 6.76562V7.35156H14.6792V8.75ZM23.812 11.6562C23.812 12.375 23.7183 13.013 23.5308 13.5703C23.3433 14.1276 23.0698 14.599 22.7104 14.9844C22.3511 15.3646 21.9188 15.6562 21.4136 15.8594C20.9084 16.0573 20.3381 16.1562 19.7026 16.1562C19.1089 16.1562 18.5646 16.0573 18.0698 15.8594C17.575 15.6562 17.1453 15.3646 16.7808 14.9844C16.4214 14.599 16.1427 14.1276 15.9448 13.5703C15.7469 13.013 15.6479 12.375 15.6479 11.6562C15.6479 10.7031 15.812 9.89583 16.1401 9.23438C16.4735 8.56771 16.9474 8.0599 17.562 7.71094C18.1766 7.36198 18.9084 7.1875 19.7573 7.1875C20.5542 7.1875 21.2573 7.36198 21.8667 7.71094C22.4761 8.0599 22.9526 8.56771 23.2964 9.23438C23.6401 9.90104 23.812 10.7083 23.812 11.6562ZM17.5386 11.6562C17.5386 12.2865 17.6141 12.8255 17.7651 13.2734C17.9214 13.7214 18.161 14.0651 18.4839 14.3047C18.8068 14.5391 19.2235 14.6562 19.7339 14.6562C20.2443 14.6562 20.661 14.5391 20.9839 14.3047C21.3068 14.0651 21.5438 13.7214 21.6948 13.2734C21.8459 12.8255 21.9214 12.2865 21.9214 11.6562C21.9214 11.026 21.8459 10.4922 21.6948 10.0547C21.5438 9.61198 21.3068 9.27604 20.9839 9.04688C20.661 8.8125 20.2417 8.69531 19.7261 8.69531C18.9657 8.69531 18.411 8.95052 18.062 9.46094C17.7131 9.97135 17.5386 10.7031 17.5386 11.6562ZM30.3042 7.1875C30.45 7.1875 30.6089 7.19531 30.7808 7.21094C30.9526 7.22656 31.1011 7.2474 31.2261 7.27344L31.0542 8.99219C30.9448 8.96094 30.8094 8.9375 30.6479 8.92188C30.4917 8.90625 30.3511 8.89844 30.2261 8.89844C29.8979 8.89844 29.5854 8.95312 29.2886 9.0625C28.9917 9.16667 28.7287 9.32812 28.4995 9.54688C28.2703 9.76042 28.0907 10.0286 27.9604 10.3516C27.8302 10.6745 27.7651 11.0495 27.7651 11.4766V16H25.9214V7.35156H27.3589L27.6089 8.875H27.6948C27.8667 8.56771 28.0802 8.28646 28.3354 8.03125C28.5907 7.77604 28.8823 7.57292 29.2104 7.42188C29.5438 7.26562 29.9084 7.1875 30.3042 7.1875ZM35.2964 19.8438C34.1245 19.8438 33.2261 19.6328 32.6011 19.2109C31.9761 18.7891 31.6636 18.1979 31.6636 17.4375C31.6636 16.9062 31.8302 16.4557 32.1636 16.0859C32.4969 15.7214 32.9735 15.4688 33.5933 15.3281C33.3589 15.224 33.1558 15.0625 32.9839 14.8438C32.8172 14.6198 32.7339 14.3724 32.7339 14.1016C32.7339 13.7786 32.825 13.5026 33.0073 13.2734C33.1896 13.0443 33.4631 12.8229 33.8276 12.6094C33.3745 12.4167 33.0099 12.1042 32.7339 11.6719C32.4631 11.2344 32.3276 10.7214 32.3276 10.1328C32.3276 9.50781 32.4604 8.97656 32.7261 8.53906C32.9917 8.09635 33.3797 7.76042 33.8901 7.53125C34.4006 7.29688 35.0177 7.17969 35.7417 7.17969C35.8979 7.17969 36.0672 7.1901 36.2495 7.21094C36.437 7.22656 36.6089 7.2474 36.7651 7.27344C36.9266 7.29427 37.049 7.31771 37.1323 7.34375H40.1245V8.36719L38.6558 8.64062C38.7964 8.83854 38.9084 9.0651 38.9917 9.32031C39.075 9.57031 39.1167 9.84375 39.1167 10.1406C39.1167 11.0365 38.8068 11.7422 38.187 12.2578C37.5724 12.7682 36.7235 13.0234 35.6401 13.0234C35.3797 13.013 35.1271 12.9922 34.8823 12.9609C34.6948 13.0755 34.5516 13.2031 34.4526 13.3438C34.3537 13.4792 34.3042 13.6328 34.3042 13.8047C34.3042 13.9453 34.3537 14.0599 34.4526 14.1484C34.5516 14.2318 34.6974 14.2943 34.8901 14.3359C35.0881 14.3776 35.3276 14.3984 35.6089 14.3984H37.1011C38.049 14.3984 38.7729 14.599 39.2729 15C39.7729 15.401 40.0229 15.9896 40.0229 16.7656C40.0229 17.75 39.6167 18.5078 38.8042 19.0391C37.9917 19.5755 36.8224 19.8438 35.2964 19.8438ZM35.3667 18.5547C36.0073 18.5547 36.5464 18.4922 36.9839 18.3672C37.4214 18.2422 37.7521 18.0625 37.9761 17.8281C38.2 17.599 38.312 17.3255 38.312 17.0078C38.312 16.7266 38.2417 16.5104 38.1011 16.3594C37.9604 16.2083 37.7495 16.1042 37.4683 16.0469C37.187 15.9896 36.8381 15.9609 36.4214 15.9609H35.062C34.7235 15.9609 34.424 16.013 34.1636 16.1172C33.9032 16.2266 33.7 16.3828 33.5542 16.5859C33.4136 16.7891 33.3433 17.0339 33.3433 17.3203C33.3433 17.7161 33.5177 18.0208 33.8667 18.2344C34.2209 18.4479 34.7209 18.5547 35.3667 18.5547ZM35.7261 11.8203C36.2625 11.8203 36.661 11.6745 36.9214 11.3828C37.1818 11.0859 37.312 10.6693 37.312 10.1328C37.312 9.54948 37.1766 9.11198 36.9058 8.82031C36.6401 8.52865 36.2443 8.38281 35.7183 8.38281C35.2026 8.38281 34.8094 8.53125 34.5386 8.82812C34.2729 9.125 34.1401 9.5651 34.1401 10.1484C34.1401 10.6745 34.2729 11.0859 34.5386 11.3828C34.8094 11.6745 35.2052 11.8203 35.7261 11.8203ZM49.3589 11.6562C49.3589 12.375 49.2651 13.013 49.0776 13.5703C48.8901 14.1276 48.6167 14.599 48.2573 14.9844C47.8979 15.3646 47.4657 15.6562 46.9604 15.8594C46.4552 16.0573 45.8849 16.1562 45.2495 16.1562C44.6558 16.1562 44.1115 16.0573 43.6167 15.8594C43.1219 15.6562 42.6922 15.3646 42.3276 14.9844C41.9683 14.599 41.6896 14.1276 41.4917 13.5703C41.2938 13.013 41.1948 12.375 41.1948 11.6562C41.1948 10.7031 41.3589 9.89583 41.687 9.23438C42.0203 8.56771 42.4943 8.0599 43.1089 7.71094C43.7235 7.36198 44.4552 7.1875 45.3042 7.1875C46.1011 7.1875 46.8042 7.36198 47.4136 7.71094C48.0229 8.0599 48.4995 8.56771 48.8433 9.23438C49.187 9.90104 49.3589 10.7083 49.3589 11.6562ZM43.0854 11.6562C43.0854 12.2865 43.161 12.8255 43.312 13.2734C43.4683 13.7214 43.7078 14.0651 44.0308 14.3047C44.3537 14.5391 44.7703 14.6562 45.2808 14.6562C45.7912 14.6562 46.2078 14.5391 46.5308 14.3047C46.8537 14.0651 47.0907 13.7214 47.2417 13.2734C47.3927 12.8255 47.4683 12.2865 47.4683 11.6562C47.4683 11.026 47.3927 10.4922 47.2417 10.0547C47.0907 9.61198 46.8537 9.27604 46.5308 9.04688C46.2078 8.8125 45.7886 8.69531 45.2729 8.69531C44.5125 8.69531 43.9578 8.95052 43.6089 9.46094C43.2599 9.97135 43.0854 10.7031 43.0854 11.6562ZM54.687 14.6719C54.9266 14.6719 55.1636 14.651 55.3979 14.6094C55.6323 14.5625 55.8459 14.5078 56.0386 14.4453V15.8359C55.8354 15.9245 55.5724 16 55.2495 16.0625C54.9266 16.125 54.5907 16.1562 54.2417 16.1562C53.7521 16.1562 53.312 16.0755 52.9214 15.9141C52.5308 15.7474 52.2209 15.4635 51.9917 15.0625C51.7625 14.6615 51.6479 14.1068 51.6479 13.3984V8.75H50.4683V7.92969L51.7339 7.28125L52.3354 5.42969H53.4917V7.35156H55.9683V8.75H53.4917V13.375C53.4917 13.8125 53.6011 14.138 53.8198 14.3516C54.0386 14.5651 54.3276 14.6719 54.687 14.6719ZM71.7261 7.1875C72.6948 7.1875 73.424 7.4375 73.9136 7.9375C74.4084 8.4375 74.6558 9.23958 74.6558 10.3438V16H72.8198V10.6719C72.8198 10.0156 72.6922 9.52083 72.437 9.1875C72.1818 8.85417 71.7938 8.6875 71.2729 8.6875C70.5438 8.6875 70.0177 8.92188 69.6948 9.39062C69.3771 9.85417 69.2183 10.5286 69.2183 11.4141V16H67.3823V10.6719C67.3823 10.2344 67.325 9.86979 67.2104 9.57812C67.1011 9.28125 66.9318 9.0599 66.7026 8.91406C66.4735 8.76302 66.1844 8.6875 65.8354 8.6875C65.3302 8.6875 64.9266 8.80208 64.6245 9.03125C64.3276 9.26042 64.1141 9.59896 63.9839 10.0469C63.8537 10.4896 63.7886 11.0339 63.7886 11.6797V16H61.9526V7.35156H63.3823L63.6401 8.51562H63.7417C63.9188 8.21354 64.1375 7.96615 64.3979 7.77344C64.6636 7.57552 64.9578 7.42969 65.2808 7.33594C65.6037 7.23698 65.9396 7.1875 66.2886 7.1875C66.9344 7.1875 67.4787 7.30208 67.9214 7.53125C68.3641 7.75521 68.6948 8.09896 68.9136 8.5625H69.0542C69.325 8.09375 69.7026 7.7474 70.187 7.52344C70.6714 7.29948 71.1844 7.1875 71.7261 7.1875ZM75.9136 7.35156H77.9136L79.687 12.2891C79.7651 12.513 79.8354 12.7344 79.8979 12.9531C79.9657 13.1667 80.0229 13.3776 80.0698 13.5859C80.1219 13.7943 80.1636 14.0026 80.1948 14.2109H80.2417C80.2938 13.9401 80.3667 13.638 80.4604 13.3047C80.5594 12.9661 80.6688 12.6276 80.7886 12.2891L82.4917 7.35156H84.4683L80.7573 17.1875C80.5438 17.75 80.2808 18.2292 79.9683 18.625C79.661 19.026 79.2964 19.3281 78.8745 19.5312C78.4526 19.7396 77.9709 19.8438 77.4292 19.8438C77.1688 19.8438 76.9422 19.8281 76.7495 19.7969C76.5568 19.7708 76.3927 19.7422 76.2573 19.7109V18.2422C76.3667 18.2682 76.5047 18.2917 76.6714 18.3125C76.8381 18.3333 77.0099 18.3438 77.187 18.3438C77.5151 18.3438 77.799 18.2786 78.0386 18.1484C78.2782 18.0182 78.4813 17.8333 78.6479 17.5938C78.8146 17.3594 78.9526 17.0911 79.062 16.7891L79.3667 15.9766L75.9136 7.35156ZM94.3745 7.1875C95.4006 7.1875 96.2235 7.5625 96.8433 8.3125C97.4683 9.0625 97.7808 10.1771 97.7808 11.6562C97.7808 12.6354 97.6349 13.4609 97.3433 14.1328C97.0568 14.7995 96.6532 15.3047 96.1323 15.6484C95.6167 15.987 95.0151 16.1562 94.3276 16.1562C93.8901 16.1562 93.5099 16.099 93.187 15.9844C92.8641 15.8698 92.5881 15.7214 92.3589 15.5391C92.1297 15.3516 91.937 15.1484 91.7808 14.9297H91.6714C91.6974 15.138 91.7209 15.3698 91.7417 15.625C91.7677 15.875 91.7808 16.1042 91.7808 16.3125V19.8359H89.937V7.35156H91.437L91.6948 8.54688H91.7808C91.9422 8.30208 92.1375 8.07552 92.3667 7.86719C92.6011 7.65885 92.8823 7.49479 93.2104 7.375C93.5438 7.25 93.9318 7.1875 94.3745 7.1875ZM93.8823 8.6875C93.3771 8.6875 92.9709 8.78906 92.6636 8.99219C92.3615 9.1901 92.1401 9.48958 91.9995 9.89062C91.8641 10.2917 91.7912 10.7943 91.7808 11.3984V11.6562C91.7808 12.2969 91.8459 12.8411 91.9761 13.2891C92.1115 13.7318 92.3328 14.0703 92.6401 14.3047C92.9526 14.5339 93.3745 14.6484 93.9058 14.6484C94.3537 14.6484 94.7235 14.526 95.0151 14.2812C95.312 14.0365 95.5334 13.6875 95.6792 13.2344C95.825 12.7812 95.8979 12.2474 95.8979 11.6328C95.8979 10.7005 95.7313 9.97656 95.3979 9.46094C95.0698 8.94531 94.5646 8.6875 93.8823 8.6875ZM103.296 7.1875C104.39 7.1875 105.216 7.42969 105.773 7.91406C106.335 8.39844 106.617 9.15365 106.617 10.1797V16H105.312L104.96 14.7734H104.898C104.653 15.0859 104.401 15.3438 104.14 15.5469C103.88 15.75 103.578 15.901 103.234 16C102.895 16.1042 102.481 16.1562 101.992 16.1562C101.476 16.1562 101.015 16.0625 100.609 15.875C100.203 15.6823 99.8823 15.3906 99.6479 15C99.4136 14.6094 99.2964 14.1146 99.2964 13.5156C99.2964 12.625 99.6271 11.9557 100.289 11.5078C100.955 11.0599 101.96 10.8125 103.304 10.7656L104.804 10.7109V10.2578C104.804 9.65885 104.664 9.23177 104.382 8.97656C104.106 8.72135 103.716 8.59375 103.21 8.59375C102.778 8.59375 102.359 8.65625 101.953 8.78125C101.546 8.90625 101.151 9.0599 100.765 9.24219L100.171 7.94531C100.593 7.72135 101.072 7.53906 101.609 7.39844C102.151 7.25781 102.713 7.1875 103.296 7.1875ZM104.796 11.8672L103.679 11.9062C102.763 11.9375 102.119 12.0938 101.75 12.375C101.38 12.6562 101.195 13.0417 101.195 13.5312C101.195 13.9583 101.322 14.2708 101.578 14.4688C101.833 14.6615 102.169 14.7578 102.585 14.7578C103.221 14.7578 103.747 14.5781 104.164 14.2188C104.585 13.8542 104.796 13.3203 104.796 12.6172V11.8672ZM115 13.5312C115 14.099 114.861 14.5781 114.585 14.9688C114.309 15.3594 113.906 15.6562 113.375 15.8594C112.848 16.0573 112.203 16.1562 111.437 16.1562C110.833 16.1562 110.312 16.112 109.875 16.0234C109.442 15.9401 109.033 15.8099 108.648 15.6328V14.0469C109.059 14.2396 109.52 14.4062 110.031 14.5469C110.546 14.6875 111.033 14.7578 111.492 14.7578C112.096 14.7578 112.531 14.6641 112.796 14.4766C113.062 14.2839 113.195 14.0286 113.195 13.7109C113.195 13.5234 113.14 13.3568 113.031 13.2109C112.927 13.0599 112.729 12.9062 112.437 12.75C112.151 12.5885 111.729 12.3958 111.171 12.1719C110.625 11.9531 110.164 11.7344 109.789 11.5156C109.414 11.2969 109.13 11.0339 108.937 10.7266C108.744 10.4141 108.648 10.0156 108.648 9.53125C108.648 8.76562 108.95 8.1849 109.554 7.78906C110.164 7.38802 110.968 7.1875 111.968 7.1875C112.5 7.1875 113 7.24219 113.468 7.35156C113.942 7.45573 114.406 7.60938 114.859 7.8125L114.281 9.19531C113.89 9.02344 113.497 8.88281 113.101 8.77344C112.71 8.65885 112.312 8.60156 111.906 8.60156C111.432 8.60156 111.07 8.67448 110.82 8.82031C110.575 8.96615 110.453 9.17448 110.453 9.44531C110.453 9.64844 110.513 9.82031 110.632 9.96094C110.752 10.1016 110.958 10.2422 111.25 10.3828C111.546 10.5234 111.958 10.6979 112.484 10.9062C113 11.1042 113.445 11.3125 113.82 11.5312C114.2 11.7448 114.492 12.0078 114.695 12.3203C114.898 12.6328 115 13.0365 115 13.5312ZM122.796 13.5312C122.796 14.099 122.658 14.5781 122.382 14.9688C122.106 15.3594 121.703 15.6562 121.171 15.8594C120.645 16.0573 120 16.1562 119.234 16.1562C118.63 16.1562 118.109 16.112 117.671 16.0234C117.239 15.9401 116.83 15.8099 116.445 15.6328V14.0469C116.856 14.2396 117.317 14.4062 117.828 14.5469C118.343 14.6875 118.83 14.7578 119.289 14.7578C119.893 14.7578 120.328 14.6641 120.593 14.4766C120.859 14.2839 120.992 14.0286 120.992 13.7109C120.992 13.5234 120.937 13.3568 120.828 13.2109C120.723 13.0599 120.526 12.9062 120.234 12.75C119.947 12.5885 119.526 12.3958 118.968 12.1719C118.421 11.9531 117.96 11.7344 117.585 11.5156C117.21 11.2969 116.927 11.0339 116.734 10.7266C116.541 10.4141 116.445 10.0156 116.445 9.53125C116.445 8.76562 116.747 8.1849 117.351 7.78906C117.96 7.38802 118.765 7.1875 119.765 7.1875C120.296 7.1875 120.796 7.24219 121.265 7.35156C121.739 7.45573 122.203 7.60938 122.656 7.8125L122.078 9.19531C121.687 9.02344 121.294 8.88281 120.898 8.77344C120.507 8.65885 120.109 8.60156 119.703 8.60156C119.229 8.60156 118.867 8.67448 118.617 8.82031C118.372 8.96615 118.25 9.17448 118.25 9.44531C118.25 9.64844 118.309 9.82031 118.429 9.96094C118.549 10.1016 118.755 10.2422 119.046 10.3828C119.343 10.5234 119.755 10.6979 120.281 10.9062C120.796 11.1042 121.242 11.3125 121.617 11.5312C121.997 11.7448 122.289 12.0078 122.492 12.3203C122.695 12.6328 122.796 13.0365 122.796 13.5312ZM131.851 15.9922L130.757 11.9688C130.705 11.7708 130.643 11.5312 130.57 11.25C130.497 10.9688 130.424 10.6797 130.351 10.3828C130.278 10.0807 130.21 9.80208 130.148 9.54688C130.091 9.29167 130.046 9.09375 130.015 8.95312H129.953C129.927 9.09375 129.885 9.29167 129.828 9.54688C129.77 9.80208 129.705 10.0807 129.632 10.3828C129.559 10.6849 129.486 10.9792 129.414 11.2656C129.346 11.5521 129.283 11.7969 129.226 12L128.078 15.9922H126.062L123.64 7.34375H125.5L126.625 11.6406C126.697 11.9323 126.768 12.2474 126.835 12.5859C126.908 12.9245 126.971 13.2474 127.023 13.5547C127.075 13.862 127.114 14.1146 127.14 14.3125H127.203C127.223 14.1719 127.252 13.9948 127.289 13.7812C127.325 13.5625 127.367 13.3359 127.414 13.1016C127.46 12.862 127.507 12.638 127.554 12.4297C127.601 12.2161 127.645 12.0443 127.687 11.9141L129.015 7.34375H131.023L132.296 11.9141C132.354 12.112 132.416 12.362 132.484 12.6641C132.552 12.9609 132.611 13.2604 132.664 13.5625C132.721 13.8594 132.757 14.1068 132.773 14.3047H132.835C132.856 14.1276 132.893 13.888 132.945 13.5859C133.002 13.2786 133.067 12.9531 133.14 12.6094C133.213 12.2604 133.289 11.9375 133.367 11.6406L134.515 7.34375H136.343L133.906 15.9922H131.851ZM145.484 11.6562C145.484 12.375 145.39 13.013 145.203 13.5703C145.015 14.1276 144.742 14.599 144.382 14.9844C144.023 15.3646 143.591 15.6562 143.085 15.8594C142.58 16.0573 142.01 16.1562 141.375 16.1562C140.781 16.1562 140.236 16.0573 139.742 15.8594C139.247 15.6562 138.817 15.3646 138.453 14.9844C138.093 14.599 137.815 14.1276 137.617 13.5703C137.419 13.013 137.32 12.375 137.32 11.6562C137.32 10.7031 137.484 9.89583 137.812 9.23438C138.145 8.56771 138.619 8.0599 139.234 7.71094C139.848 7.36198 140.58 7.1875 141.429 7.1875C142.226 7.1875 142.929 7.36198 143.539 7.71094C144.148 8.0599 144.625 8.56771 144.968 9.23438C145.312 9.90104 145.484 10.7083 145.484 11.6562ZM139.21 11.6562C139.21 12.2865 139.286 12.8255 139.437 13.2734C139.593 13.7214 139.833 14.0651 140.156 14.3047C140.479 14.5391 140.895 14.6562 141.406 14.6562C141.916 14.6562 142.333 14.5391 142.656 14.3047C142.979 14.0651 143.216 13.7214 143.367 13.2734C143.518 12.8255 143.593 12.2865 143.593 11.6562C143.593 11.026 143.518 10.4922 143.367 10.0547C143.216 9.61198 142.979 9.27604 142.656 9.04688C142.333 8.8125 141.914 8.69531 141.398 8.69531C140.638 8.69531 140.083 8.95052 139.734 9.46094C139.385 9.97135 139.21 10.7031 139.21 11.6562ZM151.976 7.1875C152.122 7.1875 152.281 7.19531 152.453 7.21094C152.625 7.22656 152.773 7.2474 152.898 7.27344L152.726 8.99219C152.617 8.96094 152.481 8.9375 152.32 8.92188C152.164 8.90625 152.023 8.89844 151.898 8.89844C151.57 8.89844 151.257 8.95312 150.96 9.0625C150.664 9.16667 150.401 9.32812 150.171 9.54688C149.942 9.76042 149.763 10.0286 149.632 10.3516C149.502 10.6745 149.437 11.0495 149.437 11.4766V16H147.593V7.35156H149.031L149.281 8.875H149.367C149.539 8.56771 149.752 8.28646 150.007 8.03125C150.263 7.77604 150.554 7.57292 150.882 7.42188C151.216 7.26562 151.58 7.1875 151.976 7.1875ZM157.406 16.1562C156.375 16.1562 155.546 15.7812 154.921 15.0312C154.302 14.276 153.992 13.1641 153.992 11.6953C153.992 10.2109 154.307 9.08854 154.937 8.32812C155.572 7.56771 156.408 7.1875 157.445 7.1875C157.882 7.1875 158.265 7.2474 158.593 7.36719C158.921 7.48177 159.203 7.63802 159.437 7.83594C159.677 8.03385 159.88 8.25521 160.046 8.5H160.132C160.106 8.33854 160.075 8.10677 160.039 7.80469C160.007 7.4974 159.992 7.21354 159.992 6.95312V3.84375H161.835V16H160.398L160.07 14.8203H159.992C159.835 15.0703 159.638 15.2969 159.398 15.5C159.164 15.6979 158.882 15.8568 158.554 15.9766C158.231 16.0964 157.848 16.1562 157.406 16.1562ZM157.921 14.6641C158.708 14.6641 159.263 14.4375 159.585 13.9844C159.908 13.5312 160.075 12.8516 160.085 11.9453V11.7031C160.085 10.7344 159.929 9.99219 159.617 9.47656C159.304 8.95573 158.734 8.69531 157.906 8.69531C157.244 8.69531 156.739 8.96354 156.39 9.5C156.046 10.0312 155.875 10.7734 155.875 11.7266C155.875 12.6797 156.046 13.4089 156.39 13.9141C156.739 14.4141 157.25 14.6641 157.921 14.6641Z" fill="#005DFF"/>
<path d="M-0.000488281 16.9766H163.148V17.3672H-0.000488281V16.9766Z" fill="#005DFF"/>
</svg>
